# Blender 4.2.0
# www.blender.org
mtllib TestBoxMain.mtl
o SmBoxBase160x160h150
v -0.080000 0.000000 0.080000
v 0.080000 0.000000 0.080000
v -0.080000 0.000000 -0.080000
v 0.080000 0.000000 -0.080000
v -0.080000 0.150000 -0.080000
v -0.080000 0.150000 0.080000
v 0.080000 0.150000 0.080000
v 0.080000 0.150000 -0.080000
v -0.077113 0.002887 0.077113
v 0.077113 0.002887 0.077113
v -0.077113 0.002887 -0.077113
v 0.077113 0.002887 -0.077113
v -0.076464 0.150000 -0.076464
v -0.076464 0.150000 0.076464
v 0.076464 0.150000 0.076464
v 0.076464 0.150000 -0.076464
vn -0.0000 -1.0000 -0.0000
vn 1.0000 -0.0000 -0.0000
vn -1.0000 -0.0000 -0.0000
vn -0.0000 -0.0000 -1.0000
vn -0.0000 -0.0000 1.0000
vn -0.0000 1.0000 -0.0000
vn -1.0000 -0.0044 -0.0000
vn 1.0000 -0.0044 -0.0000
vn -0.0000 -0.0044 1.0000
vn -0.0000 -0.0044 -1.0000
vt 0.109308 0.839999
vt 0.109308 0.270617
vt 0.723218 0.282479
vt 0.723218 0.839999
vt 0.109308 -0.263179
vt 0.723218 -0.263179
vt 0.109308 -0.796976
vt 0.723218 -0.796976
vt 0.109308 -1.330772
vt 0.723217 -1.330772
vt 1.337128 0.282479
vt 1.337128 0.839999
s 1
g SmBoxBase160x160h150_MatBoxOut
usemtl MatBoxOut
f 1/1/1 3/2/1 4/3/1 2/4/1
f 2/5/2 4/6/2 8/3/2 7/2/2
f 3/7/3 1/8/3 6/6/3 5/5/3
f 4/9/4 3/10/4 5/8/4 8/7/4
f 1/3/5 2/11/5 7/12/5 6/4/5
g SmBoxBase160x160h150_MatBoxInBase
usemtl MatBoxInBase
f 9/1/6 10/4/6 12/3/6 11/2/6
f 10/5/7 15/2/7 16/3/7 12/6/7
f 11/7/8 13/5/8 14/6/8 9/8/8
f 12/9/9 16/7/9 13/8/9 11/10/9
f 9/3/10 14/4/10 15/12/10 10/11/10
f 5/5/6 6/6/6 14/6/6 13/5/6
f 6/4/6 7/12/6 15/12/6 14/4/6
f 7/2/6 8/3/6 16/3/6 15/2/6
f 8/7/6 5/8/6 13/8/6 16/7/6
o SmBoxTop160x160
v -0.080000 0.150002 -0.080000
v -0.080000 0.307199 -0.080335
v 0.080000 0.307199 -0.080335
v 0.080000 0.150002 -0.080000
v 0.079575 0.148513 -0.079258
v -0.079576 0.148513 -0.079258
v 0.079575 0.149967 -0.076597
v -0.079576 0.149967 -0.076597
v 0.079575 0.147459 -0.078288
v -0.079576 0.147459 -0.078288
v 0.079575 0.148931 -0.076691
v -0.079576 0.148931 -0.076691
v 0.079575 0.147250 -0.077493
v -0.079576 0.147250 -0.077493
v 0.079575 0.148517 -0.076508
v -0.079576 0.148517 -0.076508
v -0.079890 0.150037 -0.077089
v -0.075680 0.154601 -0.077013
v -0.079851 0.150122 -0.077056
v -0.079760 0.150312 -0.077029
v -0.079629 0.150577 -0.077011
v -0.075680 0.302960 -0.077326
v -0.080000 0.307204 -0.077855
v -0.079639 0.306844 -0.077374
v -0.079794 0.306999 -0.077487
v -0.079920 0.307125 -0.077656
v 0.075680 0.302960 -0.077326
v 0.080000 0.307204 -0.077855
v 0.079639 0.306844 -0.077374
v 0.079794 0.306999 -0.077487
v 0.079920 0.307125 -0.077656
v 0.075680 0.154601 -0.077013
v 0.079890 0.150037 -0.077089
v 0.079629 0.150577 -0.077011
v 0.079759 0.150312 -0.077029
v 0.079851 0.150122 -0.077056
vn -0.0000 -0.0021 -1.0000
vn -0.0000 -0.2102 -0.9777
vn -0.9723 -0.1983 0.1237
vn -0.9869 -0.1499 0.0599
vn -0.9795 -0.1918 0.0613
vn -0.9851 -0.1637 0.0523
vn 0.9998 -0.0003 0.0205
vn 0.9767 0.0005 0.2144
vn 0.9723 -0.1983 0.1237
vn 0.9869 -0.1499 0.0599
vn 0.9851 -0.1637 0.0523
vn 0.9795 -0.1918 0.0613
vn -0.0022 0.0060 1.0000
vn -0.0022 0.0015 1.0000
vn 0.0022 0.0015 1.0000
vn 0.0022 0.0060 1.0000
vn 1.0000 -0.0000 -0.0000
vn -0.0000 0.9899 0.1415
vn -0.0000 1.0000 -0.0020
vn -0.0000 0.9867 0.1627
vn -0.0000 -0.5584 -0.8295
vn -0.0000 0.1627 0.9867
vn -0.0000 0.4056 0.9141
vn -0.0000 -0.6773 -0.7357
vn -1.0000 -0.0000 -0.0000
vn -0.0000 -0.0907 0.9959
vn -0.0000 -0.6138 0.7894
vn -0.0000 -0.9672 -0.2540
vn -0.2533 0.0044 0.9674
vn -0.1836 -0.0211 0.9828
vn -0.6006 0.0023 0.7995
vn -0.3378 -0.0609 0.9393
vn -0.8265 0.0018 0.5629
vn -0.8647 0.0016 0.5022
vn -0.9768 0.0005 0.2144
vn 0.2533 0.0044 0.9674
vn -0.0000 0.5906 0.8070
vn -0.0000 0.7452 0.6669
vn -0.0000 0.8917 0.4527
vn 0.1836 -0.0211 0.9828
vn 0.3378 -0.0609 0.9392
vn 0.6006 0.0023 0.7995
vn 0.8647 0.0016 0.5023
vn 0.8265 0.0018 0.5629
vn -0.0000 -0.2817 0.9595
vn -0.0000 -0.3581 0.9337
vn -0.9998 -0.0003 0.0205
vt 0.000000 0.000000
vt 1.000000 0.000000
vt 1.000000 1.000000
vt 0.000000 1.000000
vt 0.037195 0.993333
vt 0.054028 0.993333
vt 0.035278 0.993333
vt 0.054028 -0.006667
vt 0.069523 -0.006667
vt 0.072242 0.995264
vt 0.054028 0.993333
vt 0.070862 0.993333
vt 0.072778 0.993333
vt 0.996738 0.996745
vt 0.003262 0.996745
vt 0.003262 0.003255
vt 0.996738 0.003255
vt 0.870129 0.019639
vt 0.017715 0.113012
vt 0.017765 0.113007
vt 0.870079 0.019645
vt 0.016528 0.993333
vt 0.001033 0.993333
vt 0.001033 -0.006667
vt 0.016528 -0.006667
vt 0.035278 0.993333
vt 0.016528 0.993333
vt 0.016528 -0.006667
vt 0.035278 -0.006667
vt 0.997736 0.997741
vt 0.001382 0.997681
vt 0.998707 1.000000
vt 0.000000 1.000000
vt 0.035278 -0.005374
vt 0.037287 -0.006169
vt 0.035609 0.994756
vt 0.038533 -0.006667
vt 0.035815 0.995264
vt 0.997736 0.002259
vt 1.000000 0.001290
vt 1.000000 0.998709
vt -0.002222 0.992043
vt -0.002222 -0.005376
vt -0.000213 -0.006169
vt -0.000213 0.992836
vt 0.001382 0.002319
vt 0.000000 0.000000
vt 0.998707 -0.000000
vt 0.072778 -0.005374
vt 0.072447 0.994756
vt 0.070769 -0.006169
vt 0.000000 0.998497
vt 0.000000 0.001503
vt 0.868798 0.019785
vt 0.019046 0.112867
vt 0.018063 0.112974
vt 0.869782 0.019678
vt 0.054028 -0.006667
s 1
g SmBoxTop160x160_MatBoxOut
usemtl MatBoxOut
f 18/13/11 19/14/11 20/15/12 17/16/12
f 33/17/13 17/18/14 22/18/15 24/19/16
f 19/20/17 44/21/18 49/22/19 20/23/20
f 20/23/20 49/24/19 23/25/21 21/23/22
f 21/23/22 23/25/21 27/25/27 25/23/27
f 18/34/29 39/35/30 44/36/30 19/37/29
f 17/16/12 20/15/12 21/15/31 22/16/31
f 22/16/31 21/15/31 25/15/34 26/16/34
f 24/19/16 22/18/15 26/18/35 28/19/35
f 29/38/37 31/39/37 32/40/37 30/41/37
f 25/23/27 27/25/27 31/25/27 29/23/27
f 26/16/38 25/15/38 29/15/38 30/16/38
f 28/19/35 26/18/35 30/18/35 32/19/35
f 17/18/14 33/50/13 39/49/45 18/70/57
g SmBoxTop160x160_MatTopInEdge
usemtl MatTopInEdge
f 38/26/23 34/27/24 48/28/25 43/29/26
f 49/30/28 33/31/28 24/32/28 23/33/28
f 27/33/32 28/32/32 32/32/33 31/33/33
f 23/33/36 24/32/36 28/32/32 27/33/32
g SmBoxTop160x160_MatTopInBase
usemtl MatTopInBase
f 34/27/24 38/26/23 40/42/39 37/43/40
f 37/43/40 40/42/39 41/44/41 36/45/42
f 36/19/42 41/46/41 42/47/43 35/48/44
f 35/48/44 42/47/43 39/49/45 33/50/13
f 38/26/23 43/29/26 45/51/46 40/42/39
f 40/42/47 45/51/47 46/52/48 41/53/48
f 41/54/48 46/55/48 47/56/49 42/57/49
f 42/57/49 47/56/49 44/36/30 39/35/30
f 43/29/26 48/28/25 50/58/50 45/51/46
f 45/51/46 50/58/50 51/59/51 46/60/52
f 46/61/52 51/25/51 52/62/53 47/63/54
f 47/63/54 52/62/53 49/22/19 44/21/18
f 48/28/25 34/27/24 37/43/40 50/58/50
f 50/58/50 37/43/40 36/64/42 51/65/51
f 51/66/51 36/67/42 35/68/55 52/69/55
f 52/69/55 35/68/55 33/31/56 49/30/56
